<svg width="22" height="24" viewBox="0 0 22 24" fill="none" xmlns="http://www.w3.org/2000/svg">
<path d="M20.9929 22.4662L19.348 7.14102C19.3205 6.89428 19.1012 6.70238 18.8545 6.70238H15.8114V5.77026C15.8114 3.13839 13.673 1 11.0411 1C8.40926 1 6.27086 3.13839 6.27086 5.77026V6.70238H3.14552C2.89879 6.70238 2.67946 6.89428 2.65205 7.14102L1.00713 22.4662C0.979716 22.6032 1.03455 22.7403 1.11679 22.85C1.19904 22.9596 1.33611 23.0145 1.47319 23.0145H20.5268C20.6639 23.0145 20.801 22.9596 20.8832 22.85C20.9655 22.7403 21.0203 22.6032 20.9929 22.4662ZM15.3179 9.47132C15.5646 9.47132 15.7566 9.66323 15.7566 9.90996C15.7566 10.1567 15.5646 10.3486 15.3179 10.3486C15.0712 10.3486 14.8793 10.1567 14.8793 9.90996C14.8793 9.66323 15.0712 9.47132 15.3179 9.47132ZM7.25781 5.77026C7.25781 3.6867 8.95756 1.98695 11.0411 1.98695C13.1247 1.98695 14.8244 3.6867 14.8244 5.77026V6.70238H7.25781V5.77026ZM6.76434 9.47132C7.01108 9.47132 7.20298 9.66323 7.20298 9.90996C7.20298 10.1567 7.01108 10.3486 6.76434 10.3486C6.5176 10.3486 6.32569 10.1567 6.32569 9.90996C6.32569 9.66323 6.5176 9.47132 6.76434 9.47132ZM2.04891 22.0001L3.58417 7.66191H6.27086V8.56662C5.72256 8.75852 5.33875 9.27941 5.33875 9.88255C5.33875 10.6502 5.9693 11.2807 6.73692 11.2807C7.50455 11.2807 8.1351 10.6502 8.1351 9.88255C8.1351 9.27941 7.75129 8.75852 7.20298 8.56662V7.66191H14.7696V8.56662C14.2213 8.75852 13.8375 9.27941 13.8375 9.88255C13.8375 10.6502 14.468 11.2807 15.2357 11.2807C16.0033 11.2807 16.6338 10.6502 16.6338 9.88255C16.6338 9.27941 16.25 8.75852 15.7017 8.56662V7.66191H18.4981L20.0333 22.0001H2.04891Z" fill="white" stroke="white" stroke-miterlimit="10"/>
</svg>
