
<!-- Generator: Adobe Illustrator 26.3.1, SVG Export Plug-In . SVG Version: 6.00 Build 0)  -->
<svg version="1.1" id="Layer_1" xmlns="http://www.w3.org/2000/svg" xmlns:xlink="http://www.w3.org/1999/xlink" x="0px" y="0px"
	 viewBox="0 0 512 512" style="enable-background:new 0 0 512 512;" xml:space="preserve">
<g>
	<path class="st0" d="M431.27,460.8H80.73c-15.59,0-27.55-13.8-25.34-29.21l29.26-204.8c1.79-12.62,12.6-21.99,25.34-21.99h18V256
		c0,14.13,11.47,25.6,25.6,25.6c14.16,0,25.6-11.47,25.6-25.6v-51.2h153.6V256c0,14.13,11.47,25.6,25.6,25.6
		c14.16,0,25.6-11.47,25.6-25.6v-51.2h18.02c12.75,0,23.55,9.37,25.34,21.99l29.26,204.8C458.82,447,446.86,460.8,431.27,460.8z
		 M179.19,128c0-42.34,34.46-76.8,76.8-76.8c42.37,0,76.8,25.6,76.8,76.8v25.6h-153.6V128z M511.48,453.56l-36.58-256
		c-3.58-25.22-25.19-43.96-50.69-43.96h-40.22V128c0-76.8-57.42-128-128-128c-70.55,0-128,57.42-128,128v25.6H95.6
		c-25.47,0-54.91,18.74-58.52,43.96l-36.56,256C-3.88,484.41,20.06,512,51.21,512h409.58C491.94,512,515.88,484.41,511.48,453.56z"
		fill="black"/>
</g>
</svg>